<svg width="11" height="12" viewBox="0 0 11 12" fill="none" xmlns="http://www.w3.org/2000/svg">
<path d="M2.208 12C2.10133 12 2.01067 11.968 1.936 11.904C1.872 11.8293 1.84 11.7387 1.84 11.632V9.584H0.608C0.501333 9.584 0.410667 9.552 0.336 9.488C0.272 9.41333 0.24 9.32267 0.24 9.216V8.848C0.24 8.74133 0.272 8.656 0.336 8.592C0.410667 8.51733 0.501333 8.48 0.608 8.48H1.84V7.568H0.608C0.501333 7.568 0.410667 7.536 0.336 7.472C0.272 7.39733 0.24 7.30667 0.24 7.2V6.656C0.24 6.54933 0.272 6.464 0.336 6.4C0.410667 6.32533 0.501333 6.288 0.608 6.288H1.84V1.184C1.84 1.06667 1.872 0.976 1.936 0.912C2.01067 0.837333 2.10133 0.799999 2.208 0.799999H6.272C7.47733 0.799999 8.42667 1.09333 9.12 1.68C9.81333 2.26667 10.16 3.11467 10.16 4.224C10.16 5.312 9.81333 6.144 9.12 6.72C8.43733 7.28533 7.488 7.568 6.272 7.568H3.44V8.48H6.528C6.63467 8.48 6.72 8.51733 6.784 8.592C6.85867 8.656 6.896 8.74133 6.896 8.848V9.216C6.896 9.32267 6.85867 9.41333 6.784 9.488C6.72 9.552 6.63467 9.584 6.528 9.584H3.44V11.632C3.44 11.7387 3.40267 11.8293 3.328 11.904C3.25333 11.968 3.16267 12 3.056 12H2.208ZM6.192 6.288C6.97067 6.288 7.55733 6.112 7.952 5.76C8.35733 5.408 8.56 4.896 8.56 4.224C8.56 3.552 8.36267 3.04 7.968 2.688C7.57333 2.32533 6.98133 2.144 6.192 2.144H3.424V6.288H6.192Z" fill="#C2C2C2"/>
</svg>
